# xmcd
#
# Track frame offsets:
#	150
#	19888
#	36188
#	52158
#	68003
#	81395
#	99228
#	123180
#	141310
#	169108
#	195793
#	213255
#	233063
#	255733
#	275435
#	293293
#
# Disc length: 4122
#
# Revision: 1
# Processed by: cddbd v1.5.1PL0 Copyright (c) Steve Scherf et al.
# Submitted via: Axialis_AX_CDPlayer 2.6
# Normalized: r0:DSETVAR1,TDELIM( - )
#
DISCID=da101810
DTITLE=Various Artist - Welcome to the blues
DYEAR=1900
DGENRE=
TTITLE0=Booker T. Laury - Booker boogie
TTITLE1=Champion Jack Dupree - Hamhark and limer beans
TTITLE2=Memphis Slim - Three, two, one, boogie
TTITLE3=Little Willie Littlefield - Little Willie's boogie
TTITLE4=Clifton Chenier - No dog around
TTITLE5=Sugar Blue - Don't start me talkin'
TTITLE6=Zora Young - Help me
TTITLE7=Otis Rush - Rainy night in Georgia
TTITLE8=Mississippi Johnny Waters - They call it boogie
TTITLE9=Sonny Rhodes - Won't rain in California
TTITLE10=Big Time Sarah - What makes my man tick
TTITLE11=Eddie Boyd - On the sunny side of the street
TTITLE12=Hubert Sumlin - Gotta run
TTITLE13=Lightnin' Hopkins - Trouble in my mind
TTITLE14=Brownie McGhee - C.C. Rider
TTITLE15=Robert Pete Williams - Goin' thru' the bushes like a turkey again
EXTD=
EXTT0=
EXTT1=
EXTT2=
EXTT3=
EXTT4=
EXTT5=
EXTT6=
EXTT7=
EXTT8=
EXTT9=
EXTT10=
EXTT11=
EXTT12=
EXTT13=
EXTT14=
EXTT15=
PLAYORDER=
